# xmcd CD database file
#
# Track frame offsets:
#	150
#	11991
#	24948
#	35682
#	46478
#	61542
#	72235
#	86644
#	97441
#	110800
#	123295
#	133274
#	148272
#	164998
#	179057
#	188842
#	199931
#	213284
#	223322
#	236903
#	248613
#	262363
#
# Disc length: 3654 seconds
#
# Revision: 1
# Processed by: cddbd v1.5.2PL0 Copyright (c) Steve Scherf et al.
# Submitted via: CDex 1.70beta2
#
DISCID=6d0e4416
DTITLE=Lula Belle and Scotty - Have I Told You Lately (that I love you)
DYEAR=1998
DGENRE=Country
TTITLE0=Have I Told You Lately That I Love You
TTITLE1=Mountain Dew
TTITLE2=New River Train
TTITLE3=There's A Little Pine Log Cabin
TTITLE4=Darlin' Cory
TTITLE5=Maple On The Hill
TTITLE6=I Wish I Was A Single Girl Again
TTITLE7=Beyond The Starry Sky
TTITLE8=Long Gone From Bowlin' Green
TTITLE9=You Don't Love Me Like You Used To Do
TTITLE10=Blackeyed Suzie
TTITLE11=We're Gonna Hold On
TTITLE12=Time Will Tell
TTITLE13=I'm Dying For Someone To Love Me
TTITLE14=Have I Told You Lately That I Love You
TTITLE15=They Gotta Quit Kicking My Dog Around
TTITLE16=You're Not Alone
TTITLE17=The Ballad of Private Rodger Young
TTITLE18=Methodist Pie
TTITLE19=A Petal From A Faded Rose
TTITLE20=The Wampus Cat
TTITLE21=Precious Memories
EXTD=YEAR: 1998
EXTT0=
EXTT1=
EXTT2=
EXTT3=
EXTT4=
EXTT5=
EXTT6=
EXTT7=
EXTT8=
EXTT9=
EXTT10=
EXTT11=
EXTT12=
EXTT13=
EXTT14=
EXTT15=
EXTT16=
EXTT17=
EXTT18=
EXTT19=
EXTT20=
EXTT21=
PLAYORDER=
